# Blender 4.1.0
# www.blender.org
mtllib area-light.mtl
o Grid
v -1.000000 0.000000 1.000000
v -0.800000 0.000000 1.000000
v -0.600000 0.000000 1.000000
v -0.400000 0.000000 1.000000
v -0.200000 0.000000 1.000000
v 0.000000 0.000000 1.000000
v 0.200000 0.000000 1.000000
v 0.400000 0.000000 1.000000
v 0.600000 0.000000 1.000000
v 0.800000 0.000000 1.000000
v 1.000000 0.000000 1.000000
v -1.000000 0.000000 0.800000
v -0.800000 0.000000 0.800000
v -0.600000 0.000000 0.800000
v -0.400000 0.000000 0.800000
v -0.200000 0.000000 0.800000
v 0.000000 0.000000 0.800000
v 0.200000 0.000000 0.800000
v 0.400000 0.000000 0.800000
v 0.600000 0.000000 0.800000
v 0.800000 0.000000 0.800000
v 1.000000 0.000000 0.800000
v -1.000000 0.000000 0.600000
v -0.800000 0.000000 0.600000
v -0.600000 0.000000 0.600000
v -0.400000 0.000000 0.600000
v -0.200000 0.000000 0.600000
v 0.000000 0.000000 0.600000
v 0.200000 0.000000 0.600000
v 0.400000 0.000000 0.600000
v 0.600000 0.000000 0.600000
v 0.800000 0.000000 0.600000
v 1.000000 0.000000 0.600000
v -1.000000 0.000000 0.400000
v -0.800000 0.000000 0.400000
v -0.600000 0.000000 0.400000
v -0.400000 0.000000 0.400000
v -0.200000 0.000000 0.400000
v 0.000000 0.000000 0.400000
v 0.200000 0.000000 0.400000
v 0.400000 0.000000 0.400000
v 0.600000 0.000000 0.400000
v 0.800000 0.000000 0.400000
v 1.000000 0.000000 0.400000
v -1.000000 0.000000 0.200000
v -0.800000 0.000000 0.200000
v -0.600000 0.000000 0.200000
v -0.400000 0.000000 0.200000
v -0.200000 0.000000 0.200000
v 0.000000 0.000000 0.200000
v 0.200000 0.000000 0.200000
v 0.400000 0.000000 0.200000
v 0.600000 0.000000 0.200000
v 0.800000 0.000000 0.200000
v 1.000000 0.000000 0.200000
v -1.000000 0.000000 0.000000
v -0.800000 0.000000 0.000000
v -0.600000 0.000000 0.000000
v -0.400000 0.000000 0.000000
v -0.200000 0.000000 0.000000
v 0.000000 0.000000 0.000000
v 0.200000 0.000000 0.000000
v 0.400000 0.000000 0.000000
v 0.600000 0.000000 0.000000
v 0.800000 0.000000 0.000000
v 1.000000 0.000000 0.000000
v -1.000000 0.000000 -0.200000
v -0.800000 0.000000 -0.200000
v -0.600000 0.000000 -0.200000
v -0.400000 0.000000 -0.200000
v -0.200000 0.000000 -0.200000
v 0.000000 0.000000 -0.200000
v 0.200000 0.000000 -0.200000
v 0.400000 0.000000 -0.200000
v 0.600000 0.000000 -0.200000
v 0.800000 0.000000 -0.200000
v 1.000000 0.000000 -0.200000
v -1.000000 0.000000 -0.400000
v -0.800000 0.000000 -0.400000
v -0.600000 0.000000 -0.400000
v -0.400000 0.000000 -0.400000
v -0.200000 0.000000 -0.400000
v 0.000000 0.000000 -0.400000
v 0.200000 0.000000 -0.400000
v 0.400000 0.000000 -0.400000
v 0.600000 0.000000 -0.400000
v 0.800000 0.000000 -0.400000
v 1.000000 0.000000 -0.400000
v -1.000000 0.000000 -0.600000
v -0.800000 0.000000 -0.600000
v -0.600000 0.000000 -0.600000
v -0.400000 0.000000 -0.600000
v -0.200000 0.000000 -0.600000
v 0.000000 0.000000 -0.600000
v 0.200000 0.000000 -0.600000
v 0.400000 0.000000 -0.600000
v 0.600000 0.000000 -0.600000
v 0.800000 0.000000 -0.600000
v 1.000000 0.000000 -0.600000
v -1.000000 0.000000 -0.800000
v -0.800000 0.000000 -0.800000
v -0.600000 0.000000 -0.800000
v -0.400000 0.000000 -0.800000
v -0.200000 0.000000 -0.800000
v 0.000000 0.000000 -0.800000
v 0.200000 0.000000 -0.800000
v 0.400000 0.000000 -0.800000
v 0.600000 0.000000 -0.800000
v 0.800000 0.000000 -0.800000
v 1.000000 0.000000 -0.800000
v -1.000000 0.000000 -1.000000
v -0.800000 0.000000 -1.000000
v -0.600000 0.000000 -1.000000
v -0.400000 0.000000 -1.000000
v -0.200000 0.000000 -1.000000
v 0.000000 0.000000 -1.000000
v 0.200000 0.000000 -1.000000
v 0.400000 0.000000 -1.000000
v 0.600000 0.000000 -1.000000
v 0.800000 0.000000 -1.000000
v 1.000000 0.000000 -1.000000
v -1.000000 0.103054 1.000000
v -0.800000 0.103054 1.000000
v -0.600000 0.103054 1.000000
v -0.400000 0.103054 1.000000
v -0.200000 0.103054 1.000000
v 0.000000 0.103054 1.000000
v 0.200000 0.103054 1.000000
v 0.400000 0.103054 1.000000
v 0.600000 0.103054 1.000000
v 0.800000 0.103054 1.000000
v 1.000000 0.103054 1.000000
v -1.000000 0.103054 0.800000
v -0.800000 0.103054 0.800000
v -0.600000 0.103054 0.800000
v -0.400000 0.103054 0.800000
v -0.200000 0.103054 0.800000
v 0.000000 0.103054 0.800000
v 0.200000 0.103054 0.800000
v 0.400000 0.103054 0.800000
v 0.600000 0.103054 0.800000
v 0.800000 0.103054 0.800000
v 1.000000 0.103054 0.800000
v -1.000000 0.103054 0.600000
v -0.800000 0.103054 0.600000
v -0.600000 0.103054 0.600000
v -0.400000 0.103054 0.600000
v -0.200000 0.103054 0.600000
v 0.000000 0.103054 0.600000
v 0.200000 0.103054 0.600000
v 0.400000 0.103054 0.600000
v 0.600000 0.103054 0.600000
v 0.800000 0.103054 0.600000
v 1.000000 0.103054 0.600000
v -1.000000 0.103054 0.400000
v -0.800000 0.103054 0.400000
v -0.600000 0.103054 0.400000
v -0.400000 0.103054 0.400000
v -0.200000 0.103054 0.400000
v 0.000000 0.103054 0.400000
v 0.200000 0.103054 0.400000
v 0.400000 0.103054 0.400000
v 0.600000 0.103054 0.400000
v 0.800000 0.103054 0.400000
v 1.000000 0.103054 0.400000
v -1.000000 0.103054 0.200000
v -0.800000 0.103054 0.200000
v -0.600000 0.103054 0.200000
v -0.400000 0.103054 0.200000
v -0.200000 0.103054 0.200000
v 0.000000 0.103054 0.200000
v 0.200000 0.103054 0.200000
v 0.400000 0.103054 0.200000
v 0.600000 0.103054 0.200000
v 0.800000 0.103054 0.200000
v 1.000000 0.103054 0.200000
v -1.000000 0.103054 0.000000
v -0.800000 0.103054 0.000000
v -0.600000 0.103054 0.000000
v -0.400000 0.103054 0.000000
v -0.200000 0.103054 0.000000
v 0.000000 0.103054 0.000000
v 0.200000 0.103054 0.000000
v 0.400000 0.103054 0.000000
v 0.600000 0.103054 0.000000
v 0.800000 0.103054 0.000000
v 1.000000 0.103054 0.000000
v -1.000000 0.103054 -0.200000
v -0.800000 0.103054 -0.200000
v -0.600000 0.103054 -0.200000
v -0.400000 0.103054 -0.200000
v -0.200000 0.103054 -0.200000
v 0.000000 0.103054 -0.200000
v 0.200000 0.103054 -0.200000
v 0.400000 0.103054 -0.200000
v 0.600000 0.103054 -0.200000
v 0.800000 0.103054 -0.200000
v 1.000000 0.103054 -0.200000
v -1.000000 0.103054 -0.400000
v -0.800000 0.103054 -0.400000
v -0.600000 0.103054 -0.400000
v -0.400000 0.103054 -0.400000
v -0.200000 0.103054 -0.400000
v 0.000000 0.103054 -0.400000
v 0.200000 0.103054 -0.400000
v 0.400000 0.103054 -0.400000
v 0.600000 0.103054 -0.400000
v 0.800000 0.103054 -0.400000
v 1.000000 0.103054 -0.400000
v -1.000000 0.103054 -0.600000
v -0.800000 0.103054 -0.600000
v -0.600000 0.103054 -0.600000
v -0.400000 0.103054 -0.600000
v -0.200000 0.103054 -0.600000
v 0.000000 0.103054 -0.600000
v 0.200000 0.103054 -0.600000
v 0.400000 0.103054 -0.600000
v 0.600000 0.103054 -0.600000
v 0.800000 0.103054 -0.600000
v 1.000000 0.103054 -0.600000
v -1.000000 0.103054 -0.800000
v -0.800000 0.103054 -0.800000
v -0.600000 0.103054 -0.800000
v -0.400000 0.103054 -0.800000
v -0.200000 0.103054 -0.800000
v 0.000000 0.103054 -0.800000
v 0.200000 0.103054 -0.800000
v 0.400000 0.103054 -0.800000
v 0.600000 0.103054 -0.800000
v 0.800000 0.103054 -0.800000
v 1.000000 0.103054 -0.800000
v -1.000000 0.103054 -1.000000
v -0.800000 0.103054 -1.000000
v -0.600000 0.103054 -1.000000
v -0.400000 0.103054 -1.000000
v -0.200000 0.103054 -1.000000
v 0.000000 0.103054 -1.000000
v 0.200000 0.103054 -1.000000
v 0.400000 0.103054 -1.000000
v 0.600000 0.103054 -1.000000
v 0.800000 0.103054 -1.000000
v 1.000000 0.103054 -1.000000
vn -0.0000 -1.0000 -0.0000
vn -0.0000 1.0000 -0.0000
vn 1.0000 -0.0000 -0.0000
vn -1.0000 -0.0000 -0.0000
vn -0.0000 -0.0000 -1.0000
vn -0.0000 -0.0000 1.0000
vt 0.000000 0.100000
vt 0.100000 0.000000
vt 0.000000 0.000000
vt 0.100000 0.100000
vt 0.200000 0.000000
vt 0.200000 0.100000
vt 0.300000 0.000000
vt 0.300000 0.100000
vt 0.400000 0.000000
vt 0.400000 0.100000
vt 0.500000 0.000000
vt 0.500000 0.100000
vt 0.600000 0.000000
vt 0.600000 0.100000
vt 0.700000 0.000000
vt 0.700000 0.100000
vt 0.800000 0.000000
vt 0.800000 0.100000
vt 0.900000 0.000000
vt 0.900000 0.100000
vt 1.000000 0.000000
vt 0.000000 0.200000
vt 0.100000 0.200000
vt 0.200000 0.100000
vt 0.200000 0.200000
vt 0.300000 0.200000
vt 0.400000 0.200000
vt 0.500000 0.200000
vt 0.600000 0.200000
vt 0.700000 0.200000
vt 0.800000 0.200000
vt 0.900000 0.200000
vt 1.000000 0.100000
vt 0.000000 0.300000
vt 0.100000 0.200000
vt 0.000000 0.200000
vt 0.100000 0.300000
vt 0.200000 0.200000
vt 0.200000 0.300000
vt 0.300000 0.200000
vt 0.300000 0.300000
vt 0.400000 0.200000
vt 0.400000 0.300000
vt 0.500000 0.200000
vt 0.500000 0.300000
vt 0.600000 0.200000
vt 0.600000 0.300000
vt 0.700000 0.200000
vt 0.700000 0.300000
vt 0.800000 0.200000
vt 0.800000 0.300000
vt 0.900000 0.200000
vt 0.900000 0.300000
vt 1.000000 0.200000
vt 0.000000 0.400000
vt 0.100000 0.400000
vt 0.200000 0.300000
vt 0.200000 0.400000
vt 0.300000 0.400000
vt 0.400000 0.400000
vt 0.500000 0.400000
vt 0.600000 0.400000
vt 0.700000 0.400000
vt 0.800000 0.400000
vt 0.900000 0.400000
vt 1.000000 0.300000
vt 0.000000 0.500000
vt 0.100000 0.500000
vt 0.200000 0.400000
vt 0.200000 0.500000
vt 0.300000 0.500000
vt 0.400000 0.500000
vt 0.500000 0.500000
vt 0.600000 0.500000
vt 0.700000 0.500000
vt 0.800000 0.500000
vt 0.900000 0.500000
vt 1.000000 0.400000
vt 0.000000 0.600000
vt 0.100000 0.600000
vt 0.200000 0.500000
vt 0.200000 0.600000
vt 0.300000 0.600000
vt 0.400000 0.600000
vt 0.500000 0.600000
vt 0.600000 0.600000
vt 0.700000 0.600000
vt 0.800000 0.600000
vt 0.900000 0.600000
vt 1.000000 0.500000
vt 0.000000 0.700000
vt 0.100000 0.700000
vt 0.200000 0.600000
vt 0.200000 0.700000
vt 0.300000 0.700000
vt 0.400000 0.700000
vt 0.500000 0.700000
vt 0.600000 0.700000
vt 0.700000 0.700000
vt 0.800000 0.700000
vt 0.900000 0.700000
vt 1.000000 0.600000
vt 0.000000 0.800000
vt 0.100000 0.800000
vt 0.200000 0.700000
vt 0.200000 0.800000
vt 0.300000 0.800000
vt 0.400000 0.800000
vt 0.500000 0.800000
vt 0.600000 0.800000
vt 0.700000 0.800000
vt 0.800000 0.800000
vt 0.900000 0.800000
vt 1.000000 0.700000
vt 0.000000 0.900000
vt 0.100000 0.900000
vt 0.200000 0.800000
vt 0.200000 0.900000
vt 0.300000 0.900000
vt 0.400000 0.900000
vt 0.500000 0.900000
vt 0.600000 0.900000
vt 0.700000 0.900000
vt 0.800000 0.900000
vt 0.900000 0.900000
vt 1.000000 0.800000
vt 0.000000 1.000000
vt 0.100000 1.000000
vt 0.200000 0.900000
vt 0.200000 1.000000
vt 0.300000 1.000000
vt 0.400000 1.000000
vt 0.500000 1.000000
vt 0.600000 1.000000
vt 0.700000 1.000000
vt 0.800000 1.000000
vt 0.900000 1.000000
vt 1.000000 0.900000
vt 1.000000 0.200000
vt 0.200000 1.000000
vt 1.000000 1.000000
vt 0.200000 0.200000
s 0
f 12/1/1 2/2/1 1/3/1
f 13/4/1 3/5/1 2/2/1
f 14/6/1 4/7/1 3/5/1
f 15/8/1 5/9/1 4/7/1
f 16/10/1 6/11/1 5/9/1
f 17/12/1 7/13/1 6/11/1
f 18/14/1 8/15/1 7/13/1
f 19/16/1 9/17/1 8/15/1
f 20/18/1 10/19/1 9/17/1
f 21/20/1 11/21/1 10/19/1
f 23/22/1 13/4/1 12/1/1
f 24/23/1 14/24/1 13/4/1
f 25/25/1 15/8/1 14/24/1
f 26/26/1 16/10/1 15/8/1
f 27/27/1 17/12/1 16/10/1
f 28/28/1 18/14/1 17/12/1
f 29/29/1 19/16/1 18/14/1
f 30/30/1 20/18/1 19/16/1
f 31/31/1 21/20/1 20/18/1
f 32/32/1 22/33/1 21/20/1
f 34/34/1 24/35/1 23/36/1
f 35/37/1 25/38/1 24/35/1
f 36/39/1 26/40/1 25/38/1
f 37/41/1 27/42/1 26/40/1
f 38/43/1 28/44/1 27/42/1
f 39/45/1 29/46/1 28/44/1
f 40/47/1 30/48/1 29/46/1
f 41/49/1 31/50/1 30/48/1
f 42/51/1 32/52/1 31/50/1
f 43/53/1 33/54/1 32/52/1
f 45/55/1 35/37/1 34/34/1
f 46/56/1 36/57/1 35/37/1
f 47/58/1 37/41/1 36/57/1
f 48/59/1 38/43/1 37/41/1
f 49/60/1 39/45/1 38/43/1
f 50/61/1 40/47/1 39/45/1
f 51/62/1 41/49/1 40/47/1
f 52/63/1 42/51/1 41/49/1
f 53/64/1 43/53/1 42/51/1
f 54/65/1 44/66/1 43/53/1
f 56/67/1 46/56/1 45/55/1
f 57/68/1 47/69/1 46/56/1
f 58/70/1 48/59/1 47/69/1
f 59/71/1 49/60/1 48/59/1
f 60/72/1 50/61/1 49/60/1
f 61/73/1 51/62/1 50/61/1
f 62/74/1 52/63/1 51/62/1
f 63/75/1 53/64/1 52/63/1
f 64/76/1 54/65/1 53/64/1
f 65/77/1 55/78/1 54/65/1
f 67/79/1 57/68/1 56/67/1
f 68/80/1 58/81/1 57/68/1
f 69/82/1 59/71/1 58/81/1
f 70/83/1 60/72/1 59/71/1
f 71/84/1 61/73/1 60/72/1
f 72/85/1 62/74/1 61/73/1
f 73/86/1 63/75/1 62/74/1
f 74/87/1 64/76/1 63/75/1
f 75/88/1 65/77/1 64/76/1
f 76/89/1 66/90/1 65/77/1
f 78/91/1 68/80/1 67/79/1
f 79/92/1 69/93/1 68/80/1
f 80/94/1 70/83/1 69/93/1
f 81/95/1 71/84/1 70/83/1
f 82/96/1 72/85/1 71/84/1
f 83/97/1 73/86/1 72/85/1
f 84/98/1 74/87/1 73/86/1
f 85/99/1 75/88/1 74/87/1
f 86/100/1 76/89/1 75/88/1
f 87/101/1 77/102/1 76/89/1
f 89/103/1 79/92/1 78/91/1
f 90/104/1 80/105/1 79/92/1
f 91/106/1 81/95/1 80/105/1
f 92/107/1 82/96/1 81/95/1
f 93/108/1 83/97/1 82/96/1
f 94/109/1 84/98/1 83/97/1
f 95/110/1 85/99/1 84/98/1
f 96/111/1 86/100/1 85/99/1
f 97/112/1 87/101/1 86/100/1
f 98/113/1 88/114/1 87/101/1
f 100/115/1 90/104/1 89/103/1
f 101/116/1 91/117/1 90/104/1
f 102/118/1 92/107/1 91/117/1
f 103/119/1 93/108/1 92/107/1
f 104/120/1 94/109/1 93/108/1
f 105/121/1 95/110/1 94/109/1
f 106/122/1 96/111/1 95/110/1
f 107/123/1 97/112/1 96/111/1
f 108/124/1 98/113/1 97/112/1
f 109/125/1 99/126/1 98/113/1
f 111/127/1 101/116/1 100/115/1
f 112/128/1 102/129/1 101/116/1
f 113/130/1 103/119/1 102/129/1
f 114/131/1 104/120/1 103/119/1
f 115/132/1 105/121/1 104/120/1
f 116/133/1 106/122/1 105/121/1
f 117/134/1 107/123/1 106/122/1
f 118/135/1 108/124/1 107/123/1
f 119/136/1 109/125/1 108/124/1
f 120/137/1 110/138/1 109/125/1
f 123/2/2 133/1/2 122/3/2
f 124/5/2 134/4/2 123/2/2
f 125/7/2 135/6/2 124/5/2
f 126/9/2 136/8/2 125/7/2
f 127/11/2 137/10/2 126/9/2
f 128/13/2 138/12/2 127/11/2
f 129/15/2 139/14/2 128/13/2
f 130/17/2 140/16/2 129/15/2
f 131/19/2 141/18/2 130/17/2
f 132/21/2 142/20/2 131/19/2
f 134/4/2 144/22/2 133/1/2
f 135/24/2 145/23/2 134/4/2
f 136/8/2 146/25/2 135/24/2
f 137/10/2 147/26/2 136/8/2
f 138/12/2 148/27/2 137/10/2
f 139/14/2 149/28/2 138/12/2
f 140/16/2 150/29/2 139/14/2
f 141/18/2 151/30/2 140/16/2
f 142/20/2 152/31/2 141/18/2
f 143/33/2 153/32/2 142/20/2
f 145/35/2 155/34/2 144/36/2
f 146/38/2 156/37/2 145/35/2
f 147/40/2 157/39/2 146/38/2
f 148/42/2 158/41/2 147/40/2
f 149/44/2 159/43/2 148/42/2
f 150/46/2 160/45/2 149/44/2
f 151/48/2 161/47/2 150/46/2
f 152/50/2 162/49/2 151/48/2
f 153/52/2 163/51/2 152/50/2
f 154/54/2 164/53/2 153/52/2
f 156/37/2 166/55/2 155/34/2
f 157/57/2 167/56/2 156/37/2
f 158/41/2 168/58/2 157/57/2
f 159/43/2 169/59/2 158/41/2
f 160/45/2 170/60/2 159/43/2
f 161/47/2 171/61/2 160/45/2
f 162/49/2 172/62/2 161/47/2
f 163/51/2 173/63/2 162/49/2
f 164/53/2 174/64/2 163/51/2
f 165/66/2 175/65/2 164/53/2
f 167/56/2 177/67/2 166/55/2
f 168/69/2 178/68/2 167/56/2
f 169/59/2 179/70/2 168/69/2
f 170/60/2 180/71/2 169/59/2
f 171/61/2 181/72/2 170/60/2
f 172/62/2 182/73/2 171/61/2
f 173/63/2 183/74/2 172/62/2
f 174/64/2 184/75/2 173/63/2
f 175/65/2 185/76/2 174/64/2
f 176/78/2 186/77/2 175/65/2
f 178/68/2 188/79/2 177/67/2
f 179/81/2 189/80/2 178/68/2
f 180/71/2 190/82/2 179/81/2
f 181/72/2 191/83/2 180/71/2
f 182/73/2 192/84/2 181/72/2
f 183/74/2 193/85/2 182/73/2
f 184/75/2 194/86/2 183/74/2
f 185/76/2 195/87/2 184/75/2
f 186/77/2 196/88/2 185/76/2
f 187/90/2 197/89/2 186/77/2
f 189/80/2 199/91/2 188/79/2
f 190/93/2 200/92/2 189/80/2
f 191/83/2 201/94/2 190/93/2
f 192/84/2 202/95/2 191/83/2
f 193/85/2 203/96/2 192/84/2
f 194/86/2 204/97/2 193/85/2
f 195/87/2 205/98/2 194/86/2
f 196/88/2 206/99/2 195/87/2
f 197/89/2 207/100/2 196/88/2
f 198/102/2 208/101/2 197/89/2
f 200/92/2 210/103/2 199/91/2
f 201/105/2 211/104/2 200/92/2
f 202/95/2 212/106/2 201/105/2
f 203/96/2 213/107/2 202/95/2
f 204/97/2 214/108/2 203/96/2
f 205/98/2 215/109/2 204/97/2
f 206/99/2 216/110/2 205/98/2
f 207/100/2 217/111/2 206/99/2
f 208/101/2 218/112/2 207/100/2
f 209/114/2 219/113/2 208/101/2
f 211/104/2 221/115/2 210/103/2
f 212/117/2 222/116/2 211/104/2
f 213/107/2 223/118/2 212/117/2
f 214/108/2 224/119/2 213/107/2
f 215/109/2 225/120/2 214/108/2
f 216/110/2 226/121/2 215/109/2
f 217/111/2 227/122/2 216/110/2
f 218/112/2 228/123/2 217/111/2
f 219/113/2 229/124/2 218/112/2
f 220/126/2 230/125/2 219/113/2
f 222/116/2 232/127/2 221/115/2
f 223/129/2 233/128/2 222/116/2
f 224/119/2 234/130/2 223/129/2
f 225/120/2 235/131/2 224/119/2
f 226/121/2 236/132/2 225/120/2
f 227/122/2 237/133/2 226/121/2
f 228/123/2 238/134/2 227/122/2
f 229/124/2 239/135/2 228/123/2
f 230/125/2 240/136/2 229/124/2
f 231/138/2 241/137/2 230/125/2
f 110/138/3 220/126/3 99/126/3
f 78/91/4 210/103/4 89/103/4
f 33/139/3 143/33/3 22/33/3
f 116/133/5 238/134/5 117/134/5
f 5/9/6 125/7/6 4/7/6
f 100/115/4 232/127/4 111/127/4
f 55/78/3 165/66/3 44/66/3
f 10/19/6 130/17/6 9/17/6
f 23/36/4 155/34/4 34/34/4
f 117/134/5 239/135/5 118/135/5
f 6/11/6 126/9/6 5/9/6
f 111/127/5 233/128/5 112/128/5
f 77/102/3 187/90/3 66/90/3
f 1/3/4 133/1/4 12/1/4
f 45/55/4 177/67/4 56/67/4
f 118/135/5 240/136/5 119/136/5
f 2/2/6 122/3/6 1/3/6
f 11/21/6 131/19/6 10/19/6
f 99/126/3 209/114/3 88/114/3
f 112/128/5 234/140/5 113/140/5
f 67/79/4 199/91/4 78/91/4
f 22/33/3 132/21/3 11/21/3
f 119/136/5 241/137/5 120/137/5
f 7/13/6 127/11/6 6/11/6
f 121/141/3 231/138/3 110/138/3
f 89/103/4 221/115/4 100/115/4
f 113/130/5 235/131/5 114/131/5
f 44/66/3 154/54/3 33/54/3
f 3/5/6 123/2/6 2/2/6
f 12/1/4 144/22/4 23/22/4
f 120/137/5 242/141/5 121/141/5
f 8/15/6 128/13/6 7/13/6
f 66/90/3 176/78/3 55/78/3
f 114/131/5 236/132/5 115/132/5
f 34/34/4 166/55/4 45/55/4
f 4/7/6 124/5/6 3/5/6
f 88/114/3 198/102/3 77/102/3
f 56/67/4 188/79/4 67/79/4
f 115/132/5 237/133/5 116/133/5
f 9/17/6 129/15/6 8/15/6
f 12/1/1 13/4/1 2/2/1
f 13/4/1 14/24/1 3/5/1
f 14/6/1 15/8/1 4/7/1
f 15/8/1 16/10/1 5/9/1
f 16/10/1 17/12/1 6/11/1
f 17/12/1 18/14/1 7/13/1
f 18/14/1 19/16/1 8/15/1
f 19/16/1 20/18/1 9/17/1
f 20/18/1 21/20/1 10/19/1
f 21/20/1 22/33/1 11/21/1
f 23/22/1 24/23/1 13/4/1
f 24/23/1 25/142/1 14/24/1
f 25/25/1 26/26/1 15/8/1
f 26/26/1 27/27/1 16/10/1
f 27/27/1 28/28/1 17/12/1
f 28/28/1 29/29/1 18/14/1
f 29/29/1 30/30/1 19/16/1
f 30/30/1 31/31/1 20/18/1
f 31/31/1 32/32/1 21/20/1
f 32/32/1 33/139/1 22/33/1
f 34/34/1 35/37/1 24/35/1
f 35/37/1 36/57/1 25/38/1
f 36/39/1 37/41/1 26/40/1
f 37/41/1 38/43/1 27/42/1
f 38/43/1 39/45/1 28/44/1
f 39/45/1 40/47/1 29/46/1
f 40/47/1 41/49/1 30/48/1
f 41/49/1 42/51/1 31/50/1
f 42/51/1 43/53/1 32/52/1
f 43/53/1 44/66/1 33/54/1
f 45/55/1 46/56/1 35/37/1
f 46/56/1 47/69/1 36/57/1
f 47/58/1 48/59/1 37/41/1
f 48/59/1 49/60/1 38/43/1
f 49/60/1 50/61/1 39/45/1
f 50/61/1 51/62/1 40/47/1
f 51/62/1 52/63/1 41/49/1
f 52/63/1 53/64/1 42/51/1
f 53/64/1 54/65/1 43/53/1
f 54/65/1 55/78/1 44/66/1
f 56/67/1 57/68/1 46/56/1
f 57/68/1 58/81/1 47/69/1
f 58/70/1 59/71/1 48/59/1
f 59/71/1 60/72/1 49/60/1
f 60/72/1 61/73/1 50/61/1
f 61/73/1 62/74/1 51/62/1
f 62/74/1 63/75/1 52/63/1
f 63/75/1 64/76/1 53/64/1
f 64/76/1 65/77/1 54/65/1
f 65/77/1 66/90/1 55/78/1
f 67/79/1 68/80/1 57/68/1
f 68/80/1 69/93/1 58/81/1
f 69/82/1 70/83/1 59/71/1
f 70/83/1 71/84/1 60/72/1
f 71/84/1 72/85/1 61/73/1
f 72/85/1 73/86/1 62/74/1
f 73/86/1 74/87/1 63/75/1
f 74/87/1 75/88/1 64/76/1
f 75/88/1 76/89/1 65/77/1
f 76/89/1 77/102/1 66/90/1
f 78/91/1 79/92/1 68/80/1
f 79/92/1 80/105/1 69/93/1
f 80/94/1 81/95/1 70/83/1
f 81/95/1 82/96/1 71/84/1
f 82/96/1 83/97/1 72/85/1
f 83/97/1 84/98/1 73/86/1
f 84/98/1 85/99/1 74/87/1
f 85/99/1 86/100/1 75/88/1
f 86/100/1 87/101/1 76/89/1
f 87/101/1 88/114/1 77/102/1
f 89/103/1 90/104/1 79/92/1
f 90/104/1 91/117/1 80/105/1
f 91/106/1 92/107/1 81/95/1
f 92/107/1 93/108/1 82/96/1
f 93/108/1 94/109/1 83/97/1
f 94/109/1 95/110/1 84/98/1
f 95/110/1 96/111/1 85/99/1
f 96/111/1 97/112/1 86/100/1
f 97/112/1 98/113/1 87/101/1
f 98/113/1 99/126/1 88/114/1
f 100/115/1 101/116/1 90/104/1
f 101/116/1 102/129/1 91/117/1
f 102/118/1 103/119/1 92/107/1
f 103/119/1 104/120/1 93/108/1
f 104/120/1 105/121/1 94/109/1
f 105/121/1 106/122/1 95/110/1
f 106/122/1 107/123/1 96/111/1
f 107/123/1 108/124/1 97/112/1
f 108/124/1 109/125/1 98/113/1
f 109/125/1 110/138/1 99/126/1
f 111/127/1 112/128/1 101/116/1
f 112/128/1 113/140/1 102/129/1
f 113/130/1 114/131/1 103/119/1
f 114/131/1 115/132/1 104/120/1
f 115/132/1 116/133/1 105/121/1
f 116/133/1 117/134/1 106/122/1
f 117/134/1 118/135/1 107/123/1
f 118/135/1 119/136/1 108/124/1
f 119/136/1 120/137/1 109/125/1
f 120/137/1 121/141/1 110/138/1
f 123/2/2 134/4/2 133/1/2
f 124/5/2 135/24/2 134/4/2
f 125/7/2 136/8/2 135/6/2
f 126/9/2 137/10/2 136/8/2
f 127/11/2 138/12/2 137/10/2
f 128/13/2 139/14/2 138/12/2
f 129/15/2 140/16/2 139/14/2
f 130/17/2 141/18/2 140/16/2
f 131/19/2 142/20/2 141/18/2
f 132/21/2 143/33/2 142/20/2
f 134/4/2 145/23/2 144/22/2
f 135/24/2 146/142/2 145/23/2
f 136/8/2 147/26/2 146/25/2
f 137/10/2 148/27/2 147/26/2
f 138/12/2 149/28/2 148/27/2
f 139/14/2 150/29/2 149/28/2
f 140/16/2 151/30/2 150/29/2
f 141/18/2 152/31/2 151/30/2
f 142/20/2 153/32/2 152/31/2
f 143/33/2 154/139/2 153/32/2
f 145/35/2 156/37/2 155/34/2
f 146/38/2 157/57/2 156/37/2
f 147/40/2 158/41/2 157/39/2
f 148/42/2 159/43/2 158/41/2
f 149/44/2 160/45/2 159/43/2
f 150/46/2 161/47/2 160/45/2
f 151/48/2 162/49/2 161/47/2
f 152/50/2 163/51/2 162/49/2
f 153/52/2 164/53/2 163/51/2
f 154/54/2 165/66/2 164/53/2
f 156/37/2 167/56/2 166/55/2
f 157/57/2 168/69/2 167/56/2
f 158/41/2 169/59/2 168/58/2
f 159/43/2 170/60/2 169/59/2
f 160/45/2 171/61/2 170/60/2
f 161/47/2 172/62/2 171/61/2
f 162/49/2 173/63/2 172/62/2
f 163/51/2 174/64/2 173/63/2
f 164/53/2 175/65/2 174/64/2
f 165/66/2 176/78/2 175/65/2
f 167/56/2 178/68/2 177/67/2
f 168/69/2 179/81/2 178/68/2
f 169/59/2 180/71/2 179/70/2
f 170/60/2 181/72/2 180/71/2
f 171/61/2 182/73/2 181/72/2
f 172/62/2 183/74/2 182/73/2
f 173/63/2 184/75/2 183/74/2
f 174/64/2 185/76/2 184/75/2
f 175/65/2 186/77/2 185/76/2
f 176/78/2 187/90/2 186/77/2
f 178/68/2 189/80/2 188/79/2
f 179/81/2 190/93/2 189/80/2
f 180/71/2 191/83/2 190/82/2
f 181/72/2 192/84/2 191/83/2
f 182/73/2 193/85/2 192/84/2
f 183/74/2 194/86/2 193/85/2
f 184/75/2 195/87/2 194/86/2
f 185/76/2 196/88/2 195/87/2
f 186/77/2 197/89/2 196/88/2
f 187/90/2 198/102/2 197/89/2
f 189/80/2 200/92/2 199/91/2
f 190/93/2 201/105/2 200/92/2
f 191/83/2 202/95/2 201/94/2
f 192/84/2 203/96/2 202/95/2
f 193/85/2 204/97/2 203/96/2
f 194/86/2 205/98/2 204/97/2
f 195/87/2 206/99/2 205/98/2
f 196/88/2 207/100/2 206/99/2
f 197/89/2 208/101/2 207/100/2
f 198/102/2 209/114/2 208/101/2
f 200/92/2 211/104/2 210/103/2
f 201/105/2 212/117/2 211/104/2
f 202/95/2 213/107/2 212/106/2
f 203/96/2 214/108/2 213/107/2
f 204/97/2 215/109/2 214/108/2
f 205/98/2 216/110/2 215/109/2
f 206/99/2 217/111/2 216/110/2
f 207/100/2 218/112/2 217/111/2
f 208/101/2 219/113/2 218/112/2
f 209/114/2 220/126/2 219/113/2
f 211/104/2 222/116/2 221/115/2
f 212/117/2 223/129/2 222/116/2
f 213/107/2 224/119/2 223/118/2
f 214/108/2 225/120/2 224/119/2
f 215/109/2 226/121/2 225/120/2
f 216/110/2 227/122/2 226/121/2
f 217/111/2 228/123/2 227/122/2
f 218/112/2 229/124/2 228/123/2
f 219/113/2 230/125/2 229/124/2
f 220/126/2 231/138/2 230/125/2
f 222/116/2 233/128/2 232/127/2
f 223/129/2 234/140/2 233/128/2
f 224/119/2 235/131/2 234/130/2
f 225/120/2 236/132/2 235/131/2
f 226/121/2 237/133/2 236/132/2
f 227/122/2 238/134/2 237/133/2
f 228/123/2 239/135/2 238/134/2
f 229/124/2 240/136/2 239/135/2
f 230/125/2 241/137/2 240/136/2
f 231/138/2 242/141/2 241/137/2
f 110/138/3 231/138/3 220/126/3
f 78/91/4 199/91/4 210/103/4
f 33/139/3 154/139/3 143/33/3
f 116/133/5 237/133/5 238/134/5
f 5/9/6 126/9/6 125/7/6
f 100/115/4 221/115/4 232/127/4
f 55/78/3 176/78/3 165/66/3
f 10/19/6 131/19/6 130/17/6
f 23/36/4 144/36/4 155/34/4
f 117/134/5 238/134/5 239/135/5
f 6/11/6 127/11/6 126/9/6
f 111/127/5 232/127/5 233/128/5
f 77/102/3 198/102/3 187/90/3
f 1/3/4 122/3/4 133/1/4
f 45/55/4 166/55/4 177/67/4
f 118/135/5 239/135/5 240/136/5
f 2/2/6 123/2/6 122/3/6
f 11/21/6 132/21/6 131/19/6
f 99/126/3 220/126/3 209/114/3
f 112/128/5 233/128/5 234/140/5
f 67/79/4 188/79/4 199/91/4
f 22/33/3 143/33/3 132/21/3
f 119/136/5 240/136/5 241/137/5
f 7/13/6 128/13/6 127/11/6
f 121/141/3 242/141/3 231/138/3
f 89/103/4 210/103/4 221/115/4
f 113/130/5 234/130/5 235/131/5
f 44/66/3 165/66/3 154/54/3
f 3/5/6 124/5/6 123/2/6
f 12/1/4 133/1/4 144/22/4
f 120/137/5 241/137/5 242/141/5
f 8/15/6 129/15/6 128/13/6
f 66/90/3 187/90/3 176/78/3
f 114/131/5 235/131/5 236/132/5
f 34/34/4 155/34/4 166/55/4
f 4/7/6 125/7/6 124/5/6
f 88/114/3 209/114/3 198/102/3
f 56/67/4 177/67/4 188/79/4
f 115/132/5 236/132/5 237/133/5
f 9/17/6 130/17/6 129/15/6
